<?xml version="1.0" encoding="UTF-8" standalone="no"?>
<!-- Created with Inkscape (http://www.inkscape.org/) -->
<svg
   xmlns:svg="http://www.w3.org/2000/svg"
   xmlns="http://www.w3.org/2000/svg"
   version="1.0"
   width="350"
   height="100"
   id="svg2">
  <defs
     id="defs4" />
  <g
     transform="translate(0,-125)"
     id="layer1">
    <g
       transform="matrix(1.8157671,0,0,-1.8157671,0,350)"
       id="g2392">
      <g
         transform="scale(0.12,0.12)"
         id="g2394">
        <path
           d="M 0,0 L 1606.3,0 L 1606.3,1606.3 L 0,1606.3 L 0,0 z"
           id="path2396"
           style="fill:#ffffff;fill-opacity:1;fill-rule:evenodd;stroke:none" />
        <path
           d="M 1225.34,876.832 L 1208.38,877.004 L 1211.51,894.918 L 1211.66,895.457 L 1211.91,896.465 L 1212.2,897.863 L 1212.48,899.613 L 1212.67,901.703 L 1212.71,904.176 L 1212.52,907.074 L 1211.92,910.449 L 1210.72,914.246 L 1208.7,918.305 L 1205.71,922.313 L 1201.83,925.852 L 1197.32,928.559 L 1192.64,930.309 C 1174.96,932.496 1148.92,932.242 1131.96,932.242 C 917.039,932.242 703.133,931.898 487.512,931.898 L 466.137,894.223 L 367.504,894.223 L 360.215,905 L 204.094,905.441 L 203.754,905.984 L 70.8672,905.988 L 83.2461,882.109 L 82.3438,882.098 L 123.703,802.461 L 92.5234,734.668 L 91.8672,733.199 L 91.1875,731.602 L 90.5273,729.969 L 89.8906,728.285 L 89.2852,726.559 L 88.7109,724.797 L 88.1797,722.98 L 87.6836,721.098 L 87.2461,719.16 L 86.8633,717.16 L 86.5547,715.078 L 86.3281,712.906 L 86.2031,710.656 L 86.1992,708.305 L 86.3438,705.832 L 86.668,703.246 L 87.2109,700.57 L 88,697.824 L 89.0898,695.012 L 90.4961,692.191 L 92.2422,689.438 L 94.3164,686.828 L 96.6797,684.434 L 99.2891,682.293 L 102.082,680.465 L 104.961,678.965 L 107.891,677.77 L 110.84,676.855 L 113.77,676.199 L 116.676,675.758 L 119.563,675.512 L 122.148,675.441 C 327.285,675.441 528.07,674.047 736.484,674.047 L 736.184,674.543 L 1346.97,674.238 L 1347.18,674.793 L 1442.06,674.793 L 1442.46,674.789 L 1443.14,674.801 L 1443.94,674.828 L 1444.88,674.883 L 1445.89,674.965 L 1447.01,675.082 L 1448.23,675.242 L 1449.55,675.457 L 1450.92,675.719 L 1452.4,676.043 L 1453.96,676.441 L 1455.59,676.918 L 1457.27,677.473 L 1459.01,678.117 L 1460.83,678.871 L 1462.68,679.73 L 1464.55,680.691 L 1466.45,681.777 L 1468.38,682.988 L 1470.3,684.332 L 1472.21,685.801 L 1474.11,687.41 L 1475.97,689.16 L 1477.8,691.055 L 1479.57,693.074 L 1481.26,695.227 L 1482.89,697.516 L 1484.43,699.934 L 1485.88,702.473 L 1487.23,705.137 L 1488.37,707.668 L 1489.15,709.516 L 1489.93,711.328 L 1490.8,713.363 L 1491.77,715.602 L 1492.82,718.027 L 1493.95,720.617 L 1495.14,723.363 L 1496.41,726.246 L 1497.73,729.266 L 1499.1,732.387 L 1500.51,735.602 L 1501.96,738.902 L 1503.45,742.277 L 1506.38,748.93 L 1508.03,752.656 L 1509.58,756.164 L 1511.13,759.668 L 1512.67,763.152 L 1514.2,766.613 L 1515.71,770.027 L 1517.2,773.387 L 1518.66,776.676 L 1520.08,779.883 L 1521.46,782.992 L 1522.79,785.98 L 1524.05,788.848 L 1525.27,791.574 L 1526.41,794.141 L 1527.48,796.547 L 1528.47,798.773 L 1529.38,800.816 L 1529.79,801.734 L 1530.2,802.688 L 1530.63,803.676 L 1531.06,804.703 L 1531.49,805.766 L 1531.92,806.867 L 1532.35,808.02 L 1532.78,809.227 L 1533.2,810.484 L 1533.59,811.785 L 1533.97,813.152 L 1534.32,814.582 L 1534.64,816.082 L 1534.91,817.633 L 1535.14,819.234 L 1535.31,820.91 L 1535.41,822.645 L 1535.43,824.41 L 1535.38,826.191 L 1535.24,828.027 L 1535.01,829.867 L 1534.69,831.715 L 1534.29,833.539 L 1533.79,835.367 L 1533.2,837.184 L 1532.54,838.949 L 1531.81,840.672 L 1531.01,842.363 C 1524.86,854.039 1517.37,865.227 1509.96,876.832 L 1225.34,876.832"
           id="path2398"
           style="fill:#000000;fill-opacity:1;fill-rule:evenodd;stroke:none" />
        <path
           d="M 1194.53,872.688 L 1192.33,862.48 L 1189.7,862.48 L 1191.59,870.277 L 1191.55,870.277 L 1187.77,862.48 L 1185.44,862.48 L 1185,870.277 L 1184.97,870.277 L 1183.5,862.48 L 1180.88,862.48 L 1183.06,872.688 L 1186.91,872.688 L 1187.29,866.219 L 1187.32,866.219 L 1190.56,872.688 L 1194.53,872.688 z M 1181.75,872.688 L 1181.23,870.184 L 1177.92,870.184 L 1176.25,862.48 L 1173.09,862.48 L 1174.74,870.184 L 1171.57,870.184 L 1172.1,872.688 L 1181.75,872.688 z M 1146.8,901.293 L 1157.06,901.293 L 1143.27,875.242 C 1143.27,875.242 1140.35,869.352 1135.2,869.352 C 1130.05,869.352 1129.07,869.352 1129.07,869.352 C 1134.98,880.023 1141.09,890.633 1146.8,901.293 z M 1120.07,896.574 L 1101.13,862.008 L 1143.13,862.008 C 1151.87,862.008 1161.02,861.008 1165.6,869.445 C 1170.64,878.746 1182.98,901.063 1182.98,901.063 C 1182.98,901.063 1185.5,909.199 1176.54,909.199 C 1159.75,909.199 1143.63,909.434 1126.86,909.434 L 1119.96,896.574 L 1120.07,896.574 z M 1095.79,861.34 L 1043.9,861.746 L 1071.54,910.008 L 1118.91,910.008 L 1117.53,905.203 C 1115.86,899.371 1115.83,899.207 1109.76,899.207 L 1090.5,899.207 C 1088.87,899.207 1086.48,898.008 1085.2,896.539 L 1081.69,892.531 L 1104.6,892.531 C 1110.63,892.531 1106.11,881 1100.35,881 L 1079.43,881 C 1077.79,881 1075.4,879.582 1074.12,877.844 L 1070.61,873.109 L 1094.13,873.109 C 1100.84,873.414 1099.59,869.805 1095.79,861.34 z M 1038.46,861.34 L 986.566,861.746 L 1014.2,910.008 L 1061.57,910.008 L 1060.2,905.203 C 1058.52,899.371 1058.49,899.207 1052.42,899.207 L 1033.17,899.207 C 1031.54,899.207 1029.14,898.008 1027.86,896.539 L 1024.36,892.531 L 1047.27,892.531 C 1053.3,892.531 1048.77,881 1043.02,881 L 1022.09,881 C 1020.46,881 1018.07,879.582 1016.78,877.844 L 1013.28,873.109 L 1036.8,873.109 C 1043.5,873.414 1042.26,869.805 1038.46,861.34 z M 969.164,888.07 L 954.289,888.277 L 968.117,902.945 L 976.293,902.945 L 969.164,888.07 z M 943.813,860.617 L 918.668,860.617 L 944.23,909.441 C 958.574,909.441 972.922,909.441 987.273,909.441 C 989.621,909.441 991.969,909.441 994.313,909.441 C 999.273,908.848 1000.39,905.563 999.758,901.059 C 997.816,895.891 994.664,890.723 991.586,885.551 C 988.336,878.531 983.938,876.504 979.012,876.75 L 952.82,876.75 L 943.813,860.617 z M 934.75,908.375 L 932.23,900.832 C 931.82,901.18 926.484,901.246 925.68,901.246 L 897.738,901.246 C 896.715,901.246 895.957,901.164 895.492,900.996 C 895.023,900.828 894.578,900.508 894.203,900.016 C 893.98,899.719 893.668,899.113 893.23,898.207 C 892.801,897.301 892.684,897.613 892.617,897.297 C 892.406,896.238 893.164,895.707 894.895,895.707 L 915.988,895.707 C 923.395,895.707 927.102,892.895 923.32,882.793 C 922.176,879.738 918.695,873.973 915.672,868.988 C 912.813,864.277 908.18,861.715 902.926,861.27 C 887.078,859.926 736.969,861 721.324,861 L 726.82,872.133 L 891.016,872.113 C 892.184,872.113 892.969,872.195 893.375,872.34 C 893.781,872.484 894.164,872.848 894.543,873.414 C 895.367,874.641 895.902,875.77 896.113,876.797 C 896.32,877.836 895.598,878.387 893.926,878.355 L 892.18,878.32 L 874.281,878.457 C 868.879,878.496 866.566,880.445 867.367,884.414 C 867.582,885.488 868.211,887.172 869.27,889.457 L 873.871,899.441 C 874.711,901.301 875.563,902.727 876.434,903.734 C 877.293,904.742 878.465,905.66 879.922,906.504 C 881.094,907.164 882.324,907.641 883.629,907.93 C 884.941,908.223 886.465,908.375 888.215,908.375 L 934.75,908.375 z M 797.762,886.48 L 786.672,886.824 L 799.469,904.227 L 806.824,904.227 L 797.762,886.48 z M 774.859,878.699 L 801.297,878.699 C 804.445,878.699 808.316,881.273 809.902,884.422 L 819.637,903.793 C 821.219,906.941 819.938,909.516 816.789,909.516 L 790.348,909.516 C 787.199,909.516 783.324,906.941 781.742,903.793 L 772.008,884.422 C 770.426,881.273 771.707,878.699 774.859,878.699 z M 749.398,877.754 L 732.41,877.734 L 748.82,909.137 L 779.938,909.137 L 776.184,902.633 L 760.391,902.633 C 759.207,902.633 757.867,901.867 757.414,900.934 L 756.172,898.387 L 773.734,898.387 L 768.852,889.93 L 756.43,889.93 L 749.398,877.754 z M 699.27,901.293 L 709.523,901.293 L 695.738,875.242 C 695.738,875.242 692.813,869.352 687.66,869.352 C 682.508,869.352 681.535,869.352 681.535,869.352 C 687.449,880.023 693.555,890.633 699.27,901.293 z M 672.539,896.574 L 653.594,862.008 L 695.598,862.008 C 704.332,862.008 713.484,861.008 718.063,869.445 C 723.105,878.746 735.441,901.063 735.441,901.063 C 735.441,901.063 737.961,909.199 728.996,909.199 C 712.215,909.199 696.094,909.434 679.324,909.434 L 672.43,896.574 L 672.539,896.574 z M 647.23,861.34 L 595.336,861.746 L 622.977,910.008 L 670.348,910.008 L 668.969,905.203 C 667.293,899.371 667.266,899.207 661.195,899.207 L 641.941,899.207 C 640.305,899.207 637.914,898.008 636.629,896.539 L 633.125,892.531 L 656.035,892.531 C 662.066,892.531 657.539,881 651.789,881 L 630.863,881 C 629.227,881 626.84,879.582 625.551,877.844 L 622.051,873.109 L 645.566,873.109 C 652.277,873.414 651.027,869.805 647.23,861.34 z M 590.332,861.34 L 538.438,861.746 L 566.078,910.008 L 613.449,910.008 L 612.07,905.203 C 610.395,899.371 610.367,899.207 604.297,899.207 L 585.043,899.207 C 583.406,899.207 581.016,898.008 579.73,896.539 L 576.227,892.531 L 599.137,892.531 C 605.168,892.531 600.641,881 594.887,881 L 573.965,881 C 572.328,881 569.938,879.582 568.652,877.844 L 565.148,873.109 L 588.668,873.109 C 595.379,873.414 594.129,869.805 590.332,861.34 z M 479.07,862.348 L 466.301,862.09 L 493.293,909.668 L 520.684,909.668 L 524.313,875.52 L 545.168,909.145 L 554.047,909.145 L 554.551,902.891 L 530.449,861.141 L 499.809,861.141 L 497.723,899.5 L 479.07,862.348 z M 341.223,882.801 L 228.996,883.117 L 240.121,862.453 L 462.359,862.453 L 456.945,871.992 L 348.535,871.992 L 341.223,882.801 z M 144.918,860.73 L 111.539,860.316 L 136.625,812.012 L 153.004,849.742 L 144.918,860.73 z M 1119.88,727.152 L 1197.24,727.152 C 1206.54,727.152 1217.43,734.652 1221.5,743.793 L 1261.5,833.848 L 1214.52,833.762 L 1177.58,753.105 C 1175.61,748.797 1170.48,745.258 1166.16,745.258 L 1166.16,745.258 C 1161.85,745.258 1159.91,748.797 1161.89,753.105 L 1198.81,833.73 L 1150.24,833.645 L 1110.32,743.797 C 1106.26,734.652 1110.58,727.152 1119.88,727.152 z M 995.227,727.512 L 1065.71,727.512 C 1076.59,727.512 1089.46,735.871 1094.32,746.09 L 1127.61,816.055 C 1132.47,826.27 1127.55,834.629 1116.68,834.629 L 1046.2,834.629 C 1035.8,834.629 1023.56,826.977 1018.27,817.367 L 1073.26,817.367 C 1081.62,817.367 1079.7,812.883 1076.29,805.156 L 1054.87,756.582 C 1050.45,743.309 1028.55,741.68 1035.3,756.582 C 1043.22,774.203 1051.14,791.824 1059.06,809.445 L 1014.45,809.445 L 984.301,746.09 C 979.441,735.871 984.355,727.512 995.227,727.512 z M 241.355,721.359 L 674.57,721.359 L 689.805,696.281 L 231,696.281 L 241.355,721.359 z M 700.609,696.793 L 660.961,763.402 L 643.785,727.949 L 597.566,727.406 L 636.672,811.246 L 682.008,811.246 L 666.887,777.18 C 683.176,777.332 685.137,776.887 692.961,793.77 C 693.094,794.063 693.238,794.359 693.387,794.664 C 698.023,804.109 708.707,818.84 691.953,818.473 C 676.586,818.129 640.523,818.359 640.523,818.359 L 647.633,835.242 C 673.215,835.242 698.797,835.242 724.379,835.242 C 737.074,835.242 758.234,839.457 749.84,818.652 C 744.211,805.914 738.582,793.176 732.953,780.438 C 728.039,767.945 719.598,761.23 705.996,762.961 L 733.258,721.398 L 1334.28,721.605 L 1324.56,696.477 L 700.609,696.793 z M 934.598,727.18 L 913.594,762.188 L 896.41,726.734 L 850.199,726.195 L 889.301,810.031 L 934.637,810.031 L 919.52,775.965 C 935.805,776.113 937.766,775.672 945.59,792.555 C 945.723,792.844 945.867,793.145 946.016,793.449 C 950.652,802.895 961.336,817.625 944.582,817.254 C 929.215,816.918 893.152,817.141 893.152,817.141 L 900.262,834.027 C 925.844,834.027 951.426,834.027 977.012,834.027 C 989.703,834.027 1010.86,838.238 1002.47,817.438 C 996.84,804.699 991.211,791.961 985.582,779.219 C 980.668,766.73 972.223,760.012 958.621,761.742 L 981.836,727.477 L 934.598,727.18 z M 747.285,727.281 L 837.684,727.281 L 862.281,789.367 L 808.723,789.367 L 802.754,774.945 L 810.672,774.945 L 804.363,760.195 C 801.117,755.012 800.406,747.637 789.332,747.285 C 787.398,747.285 780.461,751.5 784.324,760.195 L 807.453,807.652 C 810.52,813.949 815.578,816.773 821.563,817.633 C 827.508,818.488 834.395,817.629 840.461,817.629 C 851.469,817.629 862.473,817.629 873.48,817.629 L 880.523,835.406 L 791.262,835.406 C 779.785,835.406 766.418,825.633 761.563,813.684 L 735.254,749.004 C 730.395,737.055 735.809,727.281 747.285,727.281 z M 511.984,728.184 L 586.73,728.184 L 595.758,747.32 L 556.934,747.32 C 553.195,747.32 551.367,750.098 552.875,753.488 L 561.086,771.996 L 598.484,771.996 C 604.922,771.09 610.457,788.883 602.012,790.629 L 570.148,790.629 L 579.344,809.133 C 581.027,812.527 585.469,815.305 589.207,815.305 L 627.832,815.305 L 637.098,834.941 L 560.012,834.941 C 550.461,834.941 539.125,827.125 534.828,817.57 L 502.43,745.555 C 498.129,736 502.43,728.184 511.984,728.184 z M 451.664,808.789 L 406.859,808.367 L 370.52,727.336 L 448.313,727.336 C 464.488,727.336 481.438,725.07 489.918,744.172 C 499.266,765.219 522.105,815.734 522.105,815.734 C 522.105,815.734 526.777,834.148 510.164,834.148 C 493.551,834.148 419.316,834.676 419.316,834.676 L 411.531,816.262 L 474.102,816.262 L 448.57,757.293 C 448.57,757.293 443.156,743.961 433.609,743.961 C 424.07,743.961 422.262,743.961 422.262,743.961 L 451.664,808.789 z M 1272.23,727.762 L 1225.74,727.762 L 1274.12,833.965 L 1318.36,833.965 L 1308.51,811.289 L 1338.75,833.965 L 1363.34,833.965 C 1386.25,834.352 1378.77,821.297 1372.76,808.52 C 1360.05,781.527 1335.35,727.383 1335.35,727.383 L 1289.99,727.383 L 1324.39,804.484 L 1295.66,778.406 L 1272.23,727.762 z M 290.93,727.762 L 244.441,727.762 L 292.82,833.965 L 337.055,833.965 L 327.211,811.289 L 357.449,833.965 L 382.043,833.965 C 404.953,834.352 397.473,821.297 391.457,808.52 C 378.746,781.527 354.047,727.383 354.047,727.383 L 308.688,727.383 L 343.086,804.484 L 314.363,778.406 L 290.93,727.762 z M 184.301,883.75 L 100.27,883.754 L 107.941,868.961 L 150.527,868.961 L 161.293,856.793 L 160.824,845.563 L 105.602,725.477 C 99.8047,712.867 97.1133,697.676 115.281,697.676 L 188.238,697.676 C 213.504,697.676 223.328,715 232.91,736.254 L 279.223,839.008 L 1467.51,839.008 L 1416.48,724.969 C 1416.48,724.969 1411.48,713.43 1404.52,713.188 L 1389.14,713.188 L 1446.48,832.57 L 1402.83,832.57 L 1339.5,697.023 L 1435,697.023 C 1435,697.023 1452.32,696.395 1460.82,716.566 C 1467.74,732.953 1492.75,789.285 1501.89,809.836 C 1505.98,819.047 1508.71,826.117 1501.8,836.004 C 1495.18,845.461 1489.82,854.598 1489.82,854.598 L 239.207,854.598 L 178.695,721.539 C 178.695,721.539 173.496,712.297 160.215,712.297 L 146.148,712.52 L 199.238,826.879 C 205.77,840.949 208.023,845.367 198.988,859.965 C 192.516,870.422 184.301,883.75 184.301,883.75 z M 840.832,879.547 L 833.363,889.281 L 828.273,879.422 L 813.074,879.273 L 823.574,900.488 L 823.563,900.488 L 823.969,901.289 L 824.609,902.582 L 824.629,902.582 L 826.555,906.348 L 827.836,909.254 C 836.254,909.254 844.672,909.254 853.09,909.254 C 857.266,909.254 864.16,910.426 861.73,904.641 C 860.078,901.098 858.43,897.559 856.781,894.016 C 855.363,890.543 852.691,888.676 848.188,889.156 L 856.371,879.629 L 840.832,879.547 z M 839.27,902.035 L 835.094,893.109 C 840.453,893.152 841.102,893.027 843.41,897.719 C 843.449,897.805 843.492,897.887 843.535,897.973 C 844.91,900.598 848.191,904.691 842.688,904.59 C 842.066,904.578 841.348,904.57 840.563,904.563 L 839.27,902.035"
           id="path2400"
           style="fill:#ffffff;fill-opacity:1;fill-rule:evenodd;stroke:none" />
      </g>
    </g>
  </g>
</svg>
